<svg xmlns="http://www.w3.org/2000/svg" version="1.1" xmlns:xlink="http://www.w3.org/1999/xlink" xmlns:svgjs="http://svgjs.com/svgjs" width="1440" height="560" preserveAspectRatio="none" viewBox="0 0 1440 560"><g mask="url(&quot;#SvgjsMask1124&quot;)" fill="none"><path d="M1238.083,791.933C1295.53,792.098,1359.616,785.146,1388.69,735.6C1417.996,685.66,1394.812,625.017,1365.248,575.229C1336.483,526.786,1294.42,481.403,1238.083,481.968C1182.443,482.526,1143.53,529.81,1115.258,577.735C1086.361,626.72,1060.68,685.401,1088.971,734.738C1117.353,784.235,1181.026,791.769,1238.083,791.933" fill="rgba(239, 68, 68, 0.1)" class="triangle-float3"></path><path d="M34.296,198.951C53.261,199.193,68.59,185.983,78.791,169.993C90.039,152.361,100.248,130.373,89.486,112.44C78.892,94.786,54.869,95.032,34.296,95.849C15.608,96.591,-4.371,100.383,-13.79,116.541C-23.259,132.786,-17.75,152.641,-8.274,168.881C1.11,184.963,15.678,198.713,34.296,198.951" fill="rgba(239, 68, 68, 0.1)" class="triangle-float1"></path><path d="M751.945,603.654C775.503,604.197,798.922,595.118,811.418,575.14C824.66,553.969,825.795,526.999,813.48,505.276C801.003,483.267,777.211,468.911,751.945,470.229C728.519,471.451,711.701,490.495,700.606,511.163C690.223,530.503,686.388,553.309,697.041,572.502C707.986,592.221,729.398,603.134,751.945,603.654" fill="rgba(239, 68, 68, 0.1)" class="triangle-float3"></path><path d="M941.885,142.049C965.136,142.837,989.354,133.856,1000.335,113.347C1010.876,93.661,1002.324,70.464,990.284,51.658C979.355,34.588,962.154,22.158,941.885,22.056C921.447,21.954,903.071,33.594,892.639,51.169C881.972,69.141,879.964,91.228,889.921,109.603C900.349,128.846,920.011,141.307,941.885,142.049" fill="rgba(239, 68, 68, 0.1)" class="triangle-float1"></path><path d="M980.583,506.237C1003.368,505.699,1025.921,497.829,1038.046,478.531C1050.947,457.997,1052.434,431.871,1040.607,410.7C1028.498,389.024,1005.404,376.309,980.583,375.672C954.542,375.003,928.209,385.039,914.97,407.474C901.542,430.231,903.596,459.353,918.217,481.362C931.491,501.343,956.602,506.804,980.583,506.237" fill="rgba(239, 68, 68, 0.1)" class="triangle-float1"></path><path d="M1309.428,497.223C1325.902,497.627,1338.789,484.723,1346.96,470.412C1355.049,456.244,1358.853,439.045,1350.717,424.904C1342.564,410.734,1325.743,404.134,1309.428,405.177C1294.762,406.114,1283.383,416.742,1276.368,429.656C1269.715,441.905,1268.827,456.126,1274.953,468.647C1281.984,483.017,1293.435,496.831,1309.428,497.223" fill="rgba(239, 68, 68, 0.1)" class="triangle-float3"></path><path d="M784.989,75.563C802.244,76.676,819.432,68.511,828.088,53.543C836.754,38.558,835.403,19.491,825.711,5.149C817.003,-7.736,800.538,-9.935,784.989,-10.231C768.691,-10.541,749.734,-10.516,741.493,3.548C733.203,17.696,742.071,34.508,750.549,48.544C758.634,61.931,769.382,74.557,784.989,75.563" fill="rgba(239, 68, 68, 0.1)" class="triangle-float2"></path><path d="M590.386,317.315C615.169,318.583,637.57,302.796,649.678,281.135C661.496,259.993,661.398,233.853,648.501,213.351C636.353,194.04,613.199,186.695,590.386,186.883C567.958,187.068,544.861,194.722,533.906,214.294C523.149,233.512,530.163,256.248,540.751,275.56C551.891,295.88,567.243,316.131,590.386,317.315" fill="rgba(239, 68, 68, 0.1)" class="triangle-float1"></path></g><defs><mask id="SvgjsMask1124"><rect width="1440" height="560" fill="#ffffff"></rect></mask><style>
            @keyframes float1 {
                0%{transform: translate(0, 0)}
                50%{transform: translate(-10px, 0)}
                100%{transform: translate(0, 0)}
            }

            .triangle-float1 {
                animation: float1 5s infinite;
            }

            @keyframes float2 {
                0%{transform: translate(0, 0)}
                50%{transform: translate(-5px, -5px)}
                100%{transform: translate(0, 0)}
            }

            .triangle-float2 {
                animation: float2 4s infinite;
            }

            @keyframes float3 {
                0%{transform: translate(0, 0)}
                50%{transform: translate(0, -10px)}
                100%{transform: translate(0, 0)}
            }

            .triangle-float3 {
                animation: float3 6s infinite;
            }
        </style></defs></svg>